<?xml version="1.0" ?><svg data-name="Layer 1" id="Layer_1" viewBox="0 0 128 128" xmlns="http://www.w3.org/2000/svg"><defs><style>.cls-1{fill:#fff;}</style></defs><title/><polygon points="83.83 105.94 29.5 105.94 29.5 61.94 98.5 61.94 98.5 68.47 94.5 68.47 94.5 65.94 33.5 65.94 33.5 101.94 83.83 101.94 83.83 105.94"/><path d="M83.83,105.94a22,22,0,1,1,22-22A22,22,0,0,1,83.83,105.94Zm0-40a18,18,0,1,0,18,18A18,18,0,0,0,83.83,65.94Z"/><line class="cls-1" x1="107.58" x2="98.03" y1="107.58" y2="98.03"/><rect height="13.5" transform="translate(-42.58 102.81) rotate(-45)" width="4" x="100.8" y="96.05"/><path d="M110.83,65.83H17.17L64,19Zm-84-4h74.34L64,24.66Z"/><path d="M57.21,90h-18V72h18Zm-14-4h10V76h-10Z"/><rect height="4" width="20" x="73.83" y="81.94"/><rect height="20" width="4" x="81.83" y="73.94"/></svg>